<?xml version='1.0' encoding='utf-8'?>
<svg xmlns:xlink="http://www.w3.org/1999/xlink" xmlns="http://www.w3.org/2000/svg" version="1.1" baseProfile="full" width="600" height="600">
  <title>VFPt_charged-rod</title>
  <desc>VFPt_charged-rod
created with VectorFieldPlot 1.7
http://commons.wikimedia.org/wiki/User:Geek3/VectorFieldPlot

about: http://commons.wikimedia.org/wiki/File:VFPt_charged-rod.svg
rights: Creative Commons Attribution ShareAlike 4.0
  </desc>
  <defs>
    <clipPath id="image_clip">
      <rect x="-3.0" y="-3.0" width="6.0" height="6.0"/>
    </clipPath>
    <path id="arrow1" stroke="none" fill="#000000" transform="scale(0.01)" d="M 0.3,0 L -2.2,2.25 L 3.8,0 L -2.2,-2.25 L 0.3,0 Z"/>
  </defs>
  <rect id="background" x="0" y="0" width="600" height="600" fill="#ffffff"/>
  <g id="image" transform="translate(300.0,300.0) scale(100.0,-100.0)" clip-path="url(#image_clip)">
    <g id="fieldlines" fill="none" stroke="#000000" stroke-width="0.02" stroke-linejoin="round" stroke-linecap="round">
      <g id="fieldline1">
        <path d="M 0.0000,0.9916 L 0.0049,0.9922 L 0.0094,0.9940 L 0.0144,0.9974 L 0.0198,1.0028 L 0.0257,1.0105 L 0.0322,1.0212 L 0.0394,1.0356 L 0.0473,1.0544 L 0.0559,1.0786 L 0.0655,1.1093 L 0.0762,1.1479 L 0.0880,1.1957 L 0.1012,1.2548 L 0.1162,1.3274 L 0.1332,1.4164 L 0.1526,1.5254 L 0.1752,1.6593 L 0.2016,1.8240 L 0.2329,2.0279 L 0.2706,2.2821 L 0.3167,2.6021 L 0.3742,3.0100"/>
        <g id="arrows1">
          <use xlink:href="#arrow1" transform="translate(0.2267,1.9874) rotate(81.30) scale(2.0)"/>
        </g>
      </g>
      <g id="fieldline2">
        <path d="M -0.0000,0.9239 L 0.0138,0.9245 L 0.0277,0.9263 L 0.0418,0.9294 L 0.0561,0.9338 L 0.0707,0.9395 L 0.0858,0.9468 L 0.1013,0.9557 L 0.1173,0.9663 L 0.1340,0.9789 L 0.1515,0.9936 L 0.1697,1.0107 L 0.1889,1.0303 L 0.2091,1.0528 L 0.2306,1.0786 L 0.2533,1.1079 L 0.2775,1.1412 L 0.3033,1.1789 L 0.3310,1.2216 L 0.3608,1.2698 L 0.3931,1.3245 L 0.4281,1.3862 L 0.4662,1.4561 L 0.5079,1.5352 L 0.5537,1.6249 L 0.6042,1.7267 L 0.6604,1.8426 L 0.7231,1.9750 L 0.7935,2.1267 L 0.8730,2.3012 L 0.9635,2.5028 L 1.0670,2.7367 L 1.1866,3.0100"/>
        <g id="arrows2">
          <use xlink:href="#arrow1" transform="translate(0.6851,1.8949) rotate(64.66) scale(2.0)"/>
        </g>
      </g>
      <g id="fieldline3">
        <path d="M 0.0000,0.7934 L 0.0243,0.7940 L 0.0487,0.7959 L 0.0733,0.7991 L 0.0981,0.8036 L 0.1233,0.8095 L 0.1490,0.8168 L 0.1753,0.8256 L 0.2022,0.8360 L 0.2299,0.8481 L 0.2586,0.8620 L 0.2883,0.8778 L 0.3191,0.8958 L 0.3513,0.9160 L 0.3850,0.9387 L 0.4204,0.9642 L 0.4577,0.9926 L 0.4971,1.0242 L 0.5389,1.0596 L 0.5834,1.0989 L 0.6309,1.1426 L 0.6818,1.1912 L 0.7366,1.2454 L 0.7958,1.3057 L 0.8599,1.3731 L 0.9297,1.4483 L 1.0060,1.5324 L 1.0898,1.6268 L 1.1821,1.7328 L 1.2843,1.8523 L 1.3982,1.9874 L 1.5256,2.1406 L 1.6689,2.3151 L 1.8311,2.5148 L 2.0159,2.7443 L 2.2280,3.0100"/>
        <g id="arrows3">
          <use xlink:href="#arrow1" transform="translate(0.6752,1.1851) rotate(44.25) scale(2.0)"/>
          <use xlink:href="#arrow1" transform="translate(1.7274,2.3871) rotate(50.91) scale(2.0)"/>
        </g>
      </g>
      <g id="fieldline4">
        <path d="M 0.0000,0.6088 L 0.0354,0.6094 L 0.0709,0.6112 L 0.1067,0.6142 L 0.1429,0.6186 L 0.1796,0.6242 L 0.2170,0.6311 L 0.2551,0.6395 L 0.2942,0.6493 L 0.3345,0.6607 L 0.3760,0.6737 L 0.4191,0.6885 L 0.4638,0.7052 L 0.5105,0.7239 L 0.5594,0.7449 L 0.6108,0.7683 L 0.6650,0.7943 L 0.7224,0.8233 L 0.7832,0.8554 L 0.8481,0.8911 L 0.9177,0.9308 L 0.9923,0.9748 L 1.0727,1.0238 L 1.1598,1.0783 L 1.2546,1.1390 L 1.3581,1.2069 L 1.4716,1.2828 L 1.5966,1.3681 L 1.7351,1.4639 L 1.8891,1.5722 L 2.0613,1.6948 L 2.2551,1.8344 L 2.4743,1.9938 L 2.7239,2.1770 L 3.0100,2.3885"/>
        <g id="arrows4">
          <use xlink:href="#arrow1" transform="translate(0.8305,0.8816) rotate(29.18) scale(2.0)"/>
          <use xlink:href="#arrow1" transform="translate(2.2978,1.8654) rotate(36.03) scale(2.0)"/>
        </g>
      </g>
      <g id="fieldline5">
        <path d="M -0.0000,0.3827 L 0.0534,0.3833 L 0.1071,0.3852 L 0.1614,0.3885 L 0.2165,0.3930 L 0.2728,0.3990 L 0.3306,0.4064 L 0.3903,0.4154 L 0.4522,0.4261 L 0.5169,0.4385 L 0.5846,0.4529 L 0.6561,0.4694 L 0.7318,0.4882 L 0.8127,0.5097 L 0.8992,0.5340 L 0.9924,0.5616 L 1.0936,0.5930 L 1.2038,0.6286 L 1.3247,0.6690 L 1.4581,0.7150 L 1.6062,0.7675 L 1.7717,0.8276 L 1.9579,0.8967 L 2.1690,0.9765 L 2.4101,1.0691 L 2.6876,1.1772 L 3.0100,1.3042"/>
        <g id="arrows5">
          <use xlink:href="#arrow1" transform="translate(0.7794,0.5009) rotate(15.05) scale(2.0)"/>
          <use xlink:href="#arrow1" transform="translate(2.2735,1.0167) rotate(21.01) scale(2.0)"/>
        </g>
      </g>
      <g id="fieldline6">
        <path d="M -0.0000,0.1305 L 0.0925,0.1311 L 0.1862,0.1328 L 0.2823,0.1357 L 0.3823,0.1399 L 0.4877,0.1455 L 0.6003,0.1526 L 0.7220,0.1615 L 0.8554,0.1724 L 1.0039,0.1858 L 1.1711,0.2020 L 1.3621,0.2218 L 1.5834,0.2460 L 1.8443,0.2757 L 2.1566,0.3125 L 2.5372,0.3586 L 3.0100,0.4172"/>
        <g id="arrows6">
          <use xlink:href="#arrow1" transform="translate(0.7554,0.1642) rotate(4.68) scale(2.0)"/>
          <use xlink:href="#arrow1" transform="translate(2.2593,0.3249) rotate(6.91) scale(2.0)"/>
        </g>
      </g>
      <g id="fieldline7">
        <path d="M 0.0000,-0.1305 L 0.0925,-0.1311 L 0.1862,-0.1328 L 0.2823,-0.1357 L 0.3823,-0.1399 L 0.4877,-0.1455 L 0.6003,-0.1526 L 0.7220,-0.1615 L 0.8554,-0.1724 L 1.0039,-0.1858 L 1.1711,-0.2020 L 1.3621,-0.2218 L 1.5834,-0.2460 L 1.8443,-0.2757 L 2.1566,-0.3125 L 2.5372,-0.3586 L 3.0100,-0.4172"/>
        <g id="arrows7">
          <use xlink:href="#arrow1" transform="translate(0.7554,-0.1642) rotate(-4.68) scale(2.0)"/>
          <use xlink:href="#arrow1" transform="translate(2.2593,-0.3249) rotate(-6.91) scale(2.0)"/>
        </g>
      </g>
      <g id="fieldline8">
        <path d="M -0.0000,-0.3827 L 0.0534,-0.3833 L 0.1071,-0.3852 L 0.1614,-0.3885 L 0.2165,-0.3930 L 0.2728,-0.3990 L 0.3306,-0.4064 L 0.3903,-0.4154 L 0.4522,-0.4261 L 0.5169,-0.4385 L 0.5846,-0.4529 L 0.6561,-0.4694 L 0.7318,-0.4882 L 0.8127,-0.5097 L 0.8992,-0.5340 L 0.9924,-0.5616 L 1.0936,-0.5930 L 1.2038,-0.6286 L 1.3247,-0.6690 L 1.4581,-0.7150 L 1.6062,-0.7675 L 1.7717,-0.8276 L 1.9579,-0.8967 L 2.1690,-0.9765 L 2.4101,-1.0691 L 2.6876,-1.1772 L 3.0100,-1.3042"/>
        <g id="arrows8">
          <use xlink:href="#arrow1" transform="translate(0.7794,-0.5009) rotate(-15.05) scale(2.0)"/>
          <use xlink:href="#arrow1" transform="translate(2.2735,-1.0167) rotate(-21.01) scale(2.0)"/>
        </g>
      </g>
      <g id="fieldline9">
        <path d="M 0.0000,-0.6088 L 0.0354,-0.6094 L 0.0709,-0.6112 L 0.1067,-0.6142 L 0.1429,-0.6186 L 0.1796,-0.6242 L 0.2170,-0.6311 L 0.2551,-0.6395 L 0.2942,-0.6493 L 0.3345,-0.6607 L 0.3760,-0.6737 L 0.4191,-0.6885 L 0.4638,-0.7052 L 0.5105,-0.7239 L 0.5594,-0.7449 L 0.6108,-0.7683 L 0.6650,-0.7943 L 0.7224,-0.8233 L 0.7832,-0.8554 L 0.8481,-0.8911 L 0.9177,-0.9308 L 0.9923,-0.9748 L 1.0727,-1.0238 L 1.1598,-1.0783 L 1.2546,-1.1390 L 1.3581,-1.2069 L 1.4716,-1.2828 L 1.5966,-1.3681 L 1.7351,-1.4639 L 1.8891,-1.5722 L 2.0613,-1.6948 L 2.2551,-1.8344 L 2.4743,-1.9938 L 2.7239,-2.1770 L 3.0100,-2.3885"/>
        <g id="arrows9">
          <use xlink:href="#arrow1" transform="translate(0.8305,-0.8816) rotate(-29.18) scale(2.0)"/>
          <use xlink:href="#arrow1" transform="translate(2.2978,-1.8654) rotate(-36.03) scale(2.0)"/>
        </g>
      </g>
      <g id="fieldline10">
        <path d="M 0.0000,-0.7934 L 0.0243,-0.7940 L 0.0487,-0.7959 L 0.0733,-0.7991 L 0.0981,-0.8036 L 0.1233,-0.8095 L 0.1490,-0.8168 L 0.1753,-0.8256 L 0.2022,-0.8360 L 0.2299,-0.8481 L 0.2586,-0.8620 L 0.2883,-0.8778 L 0.3191,-0.8958 L 0.3513,-0.9160 L 0.3850,-0.9387 L 0.4204,-0.9642 L 0.4577,-0.9926 L 0.4971,-1.0242 L 0.5389,-1.0596 L 0.5834,-1.0989 L 0.6309,-1.1426 L 0.6818,-1.1912 L 0.7366,-1.2454 L 0.7958,-1.3057 L 0.8599,-1.3731 L 0.9297,-1.4483 L 1.0060,-1.5324 L 1.0898,-1.6268 L 1.1821,-1.7328 L 1.2843,-1.8523 L 1.3982,-1.9874 L 1.5256,-2.1406 L 1.6689,-2.3151 L 1.8311,-2.5148 L 2.0159,-2.7443 L 2.2280,-3.0100"/>
        <g id="arrows10">
          <use xlink:href="#arrow1" transform="translate(0.6752,-1.1851) rotate(-44.25) scale(2.0)"/>
          <use xlink:href="#arrow1" transform="translate(1.7274,-2.3871) rotate(-50.91) scale(2.0)"/>
        </g>
      </g>
      <g id="fieldline11">
        <path d="M -0.0000,-0.9239 L 0.0138,-0.9245 L 0.0277,-0.9263 L 0.0418,-0.9294 L 0.0561,-0.9338 L 0.0707,-0.9395 L 0.0858,-0.9468 L 0.1013,-0.9557 L 0.1173,-0.9663 L 0.1340,-0.9789 L 0.1515,-0.9936 L 0.1697,-1.0107 L 0.1889,-1.0303 L 0.2091,-1.0528 L 0.2306,-1.0786 L 0.2533,-1.1079 L 0.2775,-1.1412 L 0.3033,-1.1789 L 0.3310,-1.2216 L 0.3608,-1.2698 L 0.3931,-1.3245 L 0.4281,-1.3862 L 0.4662,-1.4561 L 0.5079,-1.5352 L 0.5537,-1.6249 L 0.6042,-1.7267 L 0.6604,-1.8426 L 0.7231,-1.9750 L 0.7935,-2.1267 L 0.8730,-2.3012 L 0.9635,-2.5028 L 1.0670,-2.7367 L 1.1866,-3.0100"/>
        <g id="arrows11">
          <use xlink:href="#arrow1" transform="translate(0.6851,-1.8949) rotate(-64.66) scale(2.0)"/>
        </g>
      </g>
      <g id="fieldline12">
        <path d="M 0.0000,-0.9916 L 0.0049,-0.9922 L 0.0094,-0.9940 L 0.0144,-0.9974 L 0.0198,-1.0028 L 0.0257,-1.0105 L 0.0322,-1.0212 L 0.0394,-1.0356 L 0.0473,-1.0544 L 0.0559,-1.0786 L 0.0655,-1.1093 L 0.0762,-1.1479 L 0.0880,-1.1957 L 0.1012,-1.2548 L 0.1162,-1.3274 L 0.1332,-1.4164 L 0.1526,-1.5254 L 0.1752,-1.6593 L 0.2016,-1.8240 L 0.2329,-2.0279 L 0.2706,-2.2821 L 0.3167,-2.6021 L 0.3742,-3.0100"/>
        <g id="arrows12">
          <use xlink:href="#arrow1" transform="translate(0.2267,-1.9874) rotate(-81.30) scale(2.0)"/>
        </g>
      </g>
      <g id="fieldline13">
        <path d="M -0.0000,-0.9916 L -0.0049,-0.9922 L -0.0094,-0.9940 L -0.0144,-0.9974 L -0.0198,-1.0028 L -0.0257,-1.0105 L -0.0322,-1.0212 L -0.0394,-1.0356 L -0.0473,-1.0544 L -0.0559,-1.0786 L -0.0655,-1.1093 L -0.0762,-1.1479 L -0.0880,-1.1957 L -0.1012,-1.2548 L -0.1162,-1.3274 L -0.1332,-1.4164 L -0.1526,-1.5254 L -0.1752,-1.6593 L -0.2016,-1.8240 L -0.2329,-2.0279 L -0.2706,-2.2821 L -0.3167,-2.6021 L -0.3742,-3.0100"/>
        <g id="arrows13">
          <use xlink:href="#arrow1" transform="translate(-0.2267,-1.9874) rotate(-98.70) scale(2.0)"/>
        </g>
      </g>
      <g id="fieldline14">
        <path d="M 0.0000,-0.9239 L -0.0138,-0.9245 L -0.0277,-0.9263 L -0.0418,-0.9294 L -0.0561,-0.9338 L -0.0707,-0.9395 L -0.0858,-0.9468 L -0.1013,-0.9557 L -0.1173,-0.9663 L -0.1340,-0.9789 L -0.1515,-0.9936 L -0.1697,-1.0107 L -0.1889,-1.0303 L -0.2091,-1.0528 L -0.2306,-1.0786 L -0.2533,-1.1079 L -0.2775,-1.1412 L -0.3033,-1.1789 L -0.3310,-1.2216 L -0.3608,-1.2698 L -0.3931,-1.3245 L -0.4281,-1.3862 L -0.4662,-1.4561 L -0.5079,-1.5352 L -0.5537,-1.6249 L -0.6042,-1.7267 L -0.6604,-1.8426 L -0.7231,-1.9750 L -0.7935,-2.1267 L -0.8730,-2.3012 L -0.9635,-2.5028 L -1.0670,-2.7367 L -1.1866,-3.0100"/>
        <g id="arrows14">
          <use xlink:href="#arrow1" transform="translate(-0.6851,-1.8949) rotate(-115.34) scale(2.0)"/>
        </g>
      </g>
      <g id="fieldline15">
        <path d="M -0.0000,-0.7934 L -0.0243,-0.7940 L -0.0487,-0.7959 L -0.0733,-0.7991 L -0.0981,-0.8036 L -0.1233,-0.8095 L -0.1490,-0.8168 L -0.1753,-0.8256 L -0.2022,-0.8360 L -0.2299,-0.8481 L -0.2586,-0.8620 L -0.2883,-0.8778 L -0.3191,-0.8958 L -0.3513,-0.9160 L -0.3850,-0.9387 L -0.4204,-0.9642 L -0.4577,-0.9926 L -0.4971,-1.0242 L -0.5389,-1.0596 L -0.5834,-1.0989 L -0.6309,-1.1426 L -0.6818,-1.1912 L -0.7366,-1.2454 L -0.7958,-1.3057 L -0.8599,-1.3731 L -0.9297,-1.4483 L -1.0060,-1.5324 L -1.0898,-1.6268 L -1.1821,-1.7328 L -1.2843,-1.8523 L -1.3982,-1.9874 L -1.5256,-2.1406 L -1.6689,-2.3151 L -1.8311,-2.5148 L -2.0159,-2.7443 L -2.2280,-3.0100"/>
        <g id="arrows15">
          <use xlink:href="#arrow1" transform="translate(-0.6752,-1.1851) rotate(-135.75) scale(2.0)"/>
          <use xlink:href="#arrow1" transform="translate(-1.7274,-2.3871) rotate(-129.09) scale(2.0)"/>
        </g>
      </g>
      <g id="fieldline16">
        <path d="M -0.0000,-0.6088 L -0.0354,-0.6094 L -0.0709,-0.6112 L -0.1067,-0.6142 L -0.1429,-0.6186 L -0.1796,-0.6242 L -0.2170,-0.6311 L -0.2551,-0.6395 L -0.2942,-0.6493 L -0.3345,-0.6607 L -0.3760,-0.6737 L -0.4191,-0.6885 L -0.4638,-0.7052 L -0.5105,-0.7239 L -0.5594,-0.7449 L -0.6108,-0.7683 L -0.6650,-0.7943 L -0.7224,-0.8233 L -0.7832,-0.8554 L -0.8481,-0.8911 L -0.9177,-0.9308 L -0.9923,-0.9748 L -1.0727,-1.0238 L -1.1598,-1.0783 L -1.2546,-1.1390 L -1.3581,-1.2069 L -1.4716,-1.2828 L -1.5966,-1.3681 L -1.7351,-1.4639 L -1.8891,-1.5722 L -2.0613,-1.6948 L -2.2551,-1.8344 L -2.4743,-1.9938 L -2.7239,-2.1770 L -3.0100,-2.3885"/>
        <g id="arrows16">
          <use xlink:href="#arrow1" transform="translate(-0.8305,-0.8816) rotate(-150.82) scale(2.0)"/>
          <use xlink:href="#arrow1" transform="translate(-2.2978,-1.8654) rotate(-143.97) scale(2.0)"/>
        </g>
      </g>
      <g id="fieldline17">
        <path d="M 0.0000,-0.3827 L -0.0534,-0.3833 L -0.1071,-0.3852 L -0.1614,-0.3885 L -0.2165,-0.3930 L -0.2728,-0.3990 L -0.3306,-0.4064 L -0.3903,-0.4154 L -0.4522,-0.4261 L -0.5169,-0.4385 L -0.5846,-0.4529 L -0.6561,-0.4694 L -0.7318,-0.4882 L -0.8127,-0.5097 L -0.8992,-0.5340 L -0.9924,-0.5616 L -1.0936,-0.5930 L -1.2038,-0.6286 L -1.3247,-0.6690 L -1.4581,-0.7150 L -1.6062,-0.7675 L -1.7717,-0.8276 L -1.9579,-0.8967 L -2.1690,-0.9765 L -2.4101,-1.0691 L -2.6876,-1.1772 L -3.0100,-1.3042"/>
        <g id="arrows17">
          <use xlink:href="#arrow1" transform="translate(-0.7794,-0.5009) rotate(-164.95) scale(2.0)"/>
          <use xlink:href="#arrow1" transform="translate(-2.2735,-1.0167) rotate(-158.99) scale(2.0)"/>
        </g>
      </g>
      <g id="fieldline18">
        <path d="M -0.0000,-0.1305 L -0.0925,-0.1311 L -0.1862,-0.1328 L -0.2823,-0.1357 L -0.3823,-0.1399 L -0.4877,-0.1455 L -0.6003,-0.1526 L -0.7220,-0.1615 L -0.8554,-0.1724 L -1.0039,-0.1858 L -1.1711,-0.2020 L -1.3621,-0.2218 L -1.5834,-0.2460 L -1.8443,-0.2757 L -2.1566,-0.3125 L -2.5372,-0.3586 L -3.0100,-0.4172"/>
        <g id="arrows18">
          <use xlink:href="#arrow1" transform="translate(-0.7554,-0.1642) rotate(-175.32) scale(2.0)"/>
          <use xlink:href="#arrow1" transform="translate(-2.2593,-0.3249) rotate(-173.09) scale(2.0)"/>
        </g>
      </g>
      <g id="fieldline19">
        <path d="M 0.0000,0.1305 L -0.0925,0.1311 L -0.1862,0.1328 L -0.2823,0.1357 L -0.3823,0.1399 L -0.4877,0.1455 L -0.6003,0.1526 L -0.7220,0.1615 L -0.8554,0.1724 L -1.0039,0.1858 L -1.1711,0.2020 L -1.3621,0.2218 L -1.5834,0.2460 L -1.8443,0.2757 L -2.1566,0.3125 L -2.5372,0.3586 L -3.0100,0.4172"/>
        <g id="arrows19">
          <use xlink:href="#arrow1" transform="translate(-0.7554,0.1642) rotate(175.32) scale(2.0)"/>
          <use xlink:href="#arrow1" transform="translate(-2.2593,0.3249) rotate(173.09) scale(2.0)"/>
        </g>
      </g>
      <g id="fieldline20">
        <path d="M 0.0000,0.3827 L -0.0534,0.3833 L -0.1071,0.3852 L -0.1614,0.3885 L -0.2165,0.3930 L -0.2728,0.3990 L -0.3306,0.4064 L -0.3903,0.4154 L -0.4522,0.4261 L -0.5169,0.4385 L -0.5846,0.4529 L -0.6561,0.4694 L -0.7318,0.4882 L -0.8127,0.5097 L -0.8992,0.5340 L -0.9924,0.5616 L -1.0936,0.5930 L -1.2038,0.6286 L -1.3247,0.6690 L -1.4581,0.7150 L -1.6062,0.7675 L -1.7717,0.8276 L -1.9579,0.8967 L -2.1690,0.9765 L -2.4101,1.0691 L -2.6876,1.1772 L -3.0100,1.3042"/>
        <g id="arrows20">
          <use xlink:href="#arrow1" transform="translate(-0.7794,0.5009) rotate(164.95) scale(2.0)"/>
          <use xlink:href="#arrow1" transform="translate(-2.2735,1.0167) rotate(158.99) scale(2.0)"/>
        </g>
      </g>
      <g id="fieldline21">
        <path d="M -0.0000,0.6088 L -0.0354,0.6094 L -0.0709,0.6112 L -0.1067,0.6142 L -0.1429,0.6186 L -0.1796,0.6242 L -0.2170,0.6311 L -0.2551,0.6395 L -0.2942,0.6493 L -0.3345,0.6607 L -0.3760,0.6737 L -0.4191,0.6885 L -0.4638,0.7052 L -0.5105,0.7239 L -0.5594,0.7449 L -0.6108,0.7683 L -0.6650,0.7943 L -0.7224,0.8233 L -0.7832,0.8554 L -0.8481,0.8911 L -0.9177,0.9308 L -0.9923,0.9748 L -1.0727,1.0238 L -1.1598,1.0783 L -1.2546,1.1390 L -1.3581,1.2069 L -1.4716,1.2828 L -1.5966,1.3681 L -1.7351,1.4639 L -1.8891,1.5722 L -2.0613,1.6948 L -2.2551,1.8344 L -2.4743,1.9938 L -2.7239,2.1770 L -3.0100,2.3885"/>
        <g id="arrows21">
          <use xlink:href="#arrow1" transform="translate(-0.8305,0.8816) rotate(150.82) scale(2.0)"/>
          <use xlink:href="#arrow1" transform="translate(-2.2978,1.8654) rotate(143.97) scale(2.0)"/>
        </g>
      </g>
      <g id="fieldline22">
        <path d="M -0.0000,0.7934 L -0.0243,0.7940 L -0.0487,0.7959 L -0.0733,0.7991 L -0.0981,0.8036 L -0.1233,0.8095 L -0.1490,0.8168 L -0.1753,0.8256 L -0.2022,0.8360 L -0.2299,0.8481 L -0.2586,0.8620 L -0.2883,0.8778 L -0.3191,0.8958 L -0.3513,0.9160 L -0.3850,0.9387 L -0.4204,0.9642 L -0.4577,0.9926 L -0.4971,1.0242 L -0.5389,1.0596 L -0.5834,1.0989 L -0.6309,1.1426 L -0.6818,1.1912 L -0.7366,1.2454 L -0.7958,1.3057 L -0.8599,1.3731 L -0.9297,1.4483 L -1.0060,1.5324 L -1.0898,1.6268 L -1.1821,1.7328 L -1.2843,1.8523 L -1.3982,1.9874 L -1.5256,2.1406 L -1.6689,2.3151 L -1.8311,2.5148 L -2.0159,2.7443 L -2.2280,3.0100"/>
        <g id="arrows22">
          <use xlink:href="#arrow1" transform="translate(-0.6752,1.1851) rotate(135.75) scale(2.0)"/>
          <use xlink:href="#arrow1" transform="translate(-1.7274,2.3871) rotate(129.09) scale(2.0)"/>
        </g>
      </g>
      <g id="fieldline23">
        <path d="M 0.0000,0.9239 L -0.0138,0.9245 L -0.0277,0.9263 L -0.0418,0.9294 L -0.0561,0.9338 L -0.0707,0.9395 L -0.0858,0.9468 L -0.1013,0.9557 L -0.1173,0.9663 L -0.1340,0.9789 L -0.1515,0.9936 L -0.1697,1.0107 L -0.1889,1.0303 L -0.2091,1.0528 L -0.2306,1.0786 L -0.2533,1.1079 L -0.2775,1.1412 L -0.3033,1.1789 L -0.3310,1.2216 L -0.3608,1.2698 L -0.3931,1.3245 L -0.4281,1.3862 L -0.4662,1.4561 L -0.5079,1.5352 L -0.5537,1.6249 L -0.6042,1.7267 L -0.6604,1.8426 L -0.7231,1.9750 L -0.7935,2.1267 L -0.8730,2.3012 L -0.9635,2.5028 L -1.0670,2.7367 L -1.1866,3.0100"/>
        <g id="arrows23">
          <use xlink:href="#arrow1" transform="translate(-0.6851,1.8949) rotate(115.34) scale(2.0)"/>
        </g>
      </g>
      <g id="fieldline24">
        <path d="M -0.0000,0.9916 L -0.0049,0.9922 L -0.0094,0.9940 L -0.0144,0.9974 L -0.0198,1.0028 L -0.0257,1.0105 L -0.0322,1.0212 L -0.0394,1.0356 L -0.0473,1.0544 L -0.0559,1.0786 L -0.0655,1.1093 L -0.0762,1.1479 L -0.0880,1.1957 L -0.1012,1.2548 L -0.1162,1.3274 L -0.1332,1.4164 L -0.1526,1.5254 L -0.1752,1.6593 L -0.2016,1.8240 L -0.2329,2.0279 L -0.2706,2.2821 L -0.3167,2.6021 L -0.3742,3.0100"/>
        <g id="arrows24">
          <use xlink:href="#arrow1" transform="translate(-0.2267,1.9874) rotate(98.70) scale(2.0)"/>
        </g>
      </g>
    </g>
    <g id="symbols">
      <g>
        <linearGradient y2="0.045" gradientUnits="userSpaceOnUse" y1="-0.045" x2="0" x1="0" id="grad">
          <stop stop-color="#000" stop-opacity="0.3" id="grad" offset="0"/>
          <stop stop-color="#999" stop-opacity="0.2" id="grad" offset="0.3"/>
          <stop stop-color="#fff" stop-opacity="0.25" id="grad" offset="0.8"/>
          <stop stop-color="#fff" stop-opacity="0.65" id="grad" offset="1"/>
        </linearGradient>
      </g>
      <rect style="fill:#f22; stroke:none" transform="translate(0,0) rotate(90)" height="0.09" width="2.01" y="-0.045" x="-1.005"/>
      <rect style="fill:url(#grad); stroke:#000; stroke-width:0.01" transform="translate(0,0) rotate(90)" height="0.09" width="2.01" y="-0.045" x="-1.005"/>
      <path style="fill:none; stroke:#000; stroke-width:0.02; stroke-linecap:square" d="M 0,-0.02 v 0.04 M -0.02,0 h 0.04" transform="translate(0,-0.875)"/>
      <path style="fill:none; stroke:#000; stroke-width:0.02; stroke-linecap:square" d="M 0,-0.02 v 0.04 M -0.02,0 h 0.04" transform="translate(0,-0.625)"/>
      <path style="fill:none; stroke:#000; stroke-width:0.02; stroke-linecap:square" d="M 0,-0.02 v 0.04 M -0.02,0 h 0.04" transform="translate(0,-0.375)"/>
      <path style="fill:none; stroke:#000; stroke-width:0.02; stroke-linecap:square" d="M 0,-0.02 v 0.04 M -0.02,0 h 0.04" transform="translate(0,-0.125)"/>
      <path style="fill:none; stroke:#000; stroke-width:0.02; stroke-linecap:square" d="M 0,-0.02 v 0.04 M -0.02,0 h 0.04" transform="translate(0,0.125)"/>
      <path style="fill:none; stroke:#000; stroke-width:0.02; stroke-linecap:square" d="M 0,-0.02 v 0.04 M -0.02,0 h 0.04" transform="translate(0,0.375)"/>
      <path style="fill:none; stroke:#000; stroke-width:0.02; stroke-linecap:square" d="M 0,-0.02 v 0.04 M -0.02,0 h 0.04" transform="translate(0,0.625)"/>
      <path style="fill:none; stroke:#000; stroke-width:0.02; stroke-linecap:square" d="M 0,-0.02 v 0.04 M -0.02,0 h 0.04" transform="translate(0,0.875)"/>
    </g>
  </g>
</svg>
