<?xml version="1.0" encoding="UTF-8" standalone="no"?>
<svg
   viewBox="0 0 26 26"
   enable-background="new 0 0 26 26"
   version="1.1"
   id="svg1"
   sodipodi:docname="UpArrow.svg"
   inkscape:version="1.3 (0e150ed6c4, 2023-07-21)"
   xmlns:inkscape="http://www.inkscape.org/namespaces/inkscape"
   xmlns:sodipodi="http://sodipodi.sourceforge.net/DTD/sodipodi-0.dtd"
   xmlns="http://www.w3.org/2000/svg"
   xmlns:svg="http://www.w3.org/2000/svg">
  <defs
     id="defs1" />
  <sodipodi:namedview
     id="namedview1"
     pagecolor="#ffffff"
     bordercolor="#666666"
     borderopacity="1.0"
     inkscape:showpageshadow="2"
     inkscape:pageopacity="0.0"
     inkscape:pagecheckerboard="0"
     inkscape:deskcolor="#d1d1d1"
     inkscape:zoom="31.269231"
     inkscape:cx="13"
     inkscape:cy="13"
     inkscape:window-width="1920"
     inkscape:window-height="1009"
     inkscape:window-x="-8"
     inkscape:window-y="-8"
     inkscape:window-maximized="1"
     inkscape:current-layer="svg1" />
  <rect
     style="fill:#ffffff;stroke-width:3.77953;stroke-linecap:round;stroke-linejoin:round;stroke-miterlimit:0"
     id="rect1"
     width="26"
     height="26"
     x="0"
     y="0" />
  <path
     d="M13,25c6.6,0,12-5.4,12-12c0-6.6-5.4-12-12-12S1,6.4,1,13C1,19.6,6.4,25,13,25z M7.4,11.8c2-2.9,5-5.6,5.2-5.7 C12.7,6.1,12.8,6,13,6s0.3,0.1,0.5,0.2c0.1,0.1,3.2,2.8,5.2,5.7c0.2,0.2,0.2,0.5,0,0.8C18.5,12.8,18.3,13,18,13h-2.6 c0,0-0.3,6.1-0.5,6.4C14.6,19.7,13.8,20,13,20c-0.7,0-1.5-0.3-1.8-0.6C11,19.1,10.6,13,10.6,13H8c-0.3,0-0.5-0.1-0.6-0.4 C7.2,12.4,7.2,12.1,7.4,11.8z"
     id="path1" />
</svg>
