<?xml version="1.0" encoding="UTF-8" standalone="no"?>
<!-- Generator: Adobe Illustrator 26.1.0, SVG Export Plug-In . SVG Version: 6.00 Build 0)  -->

<svg
   version="1.1"
   id="Layer_1"
   x="0px"
   y="0px"
   viewBox="0 0 394.2 477.3"
   style="enable-background:new 0 0 394.2 477.3;"
   xml:space="preserve"
   sodipodi:docname="btot.svg"
   inkscape:version="1.2.1 (9c6d41e410, 2022-07-14)"
   xmlns:inkscape="http://www.inkscape.org/namespaces/inkscape"
   xmlns:sodipodi="http://sodipodi.sourceforge.net/DTD/sodipodi-0.dtd"
   xmlns="http://www.w3.org/2000/svg"
   xmlns:svg="http://www.w3.org/2000/svg"
   xmlns:ns3="http://www.iki.fi/pav/software/textext/"><defs
   id="defs7362"><g
     id="id-5b466c01-6740-41d9-bdfd-709fa21c0990-5">
      <g
   id="id-0b32149b-ba41-40ae-97f2-468faf247150-5" />
      <g
   id="id-c76ff1db-2df5-46e7-a19f-4d17a5c6fb68-0">
        <path
   d="m 5.359375,-5.9375 c -0.140625,0.140625 -0.46875,0.421875 -0.46875,0.59375 0,0.09375 0.09375,0.203125 0.1875,0.203125 0.09375,0 0.140625,-0.078125 0.203125,-0.140625 C 5.390625,-5.421875 5.625,-5.703125 6.0625,-5.921875 6.125,-5.96875 6.234375,-6.015625 6.234375,-6.125 6.234375,-6.234375 6.15625,-6.28125 6.09375,-6.328125 5.875,-6.484375 5.765625,-6.65625 5.6875,-6.890625 5.65625,-6.984375 5.625,-7.125 5.484375,-7.125 c -0.140625,0 -0.203125,0.140625 -0.203125,0.21875 0,0.046875 0.078125,0.359375 0.234375,0.578125 H 2.15625 c -0.15625,0 -0.34375,0 -0.34375,0.203125 0,0.1875 0.1875,0.1875 0.34375,0.1875 z m 0,0"
   id="id-91cd0b22-3cc8-4087-875d-f02c7ce0af08-4" />
      </g>
      <g
   id="id-a98b41e6-3bc2-4482-92b4-f80a7eb041ab-1">
        <path
   d="M 1.59375,-0.78125 C 1.5,-0.390625 1.46875,-0.3125 0.6875,-0.3125 c -0.171875,0 -0.265625,0 -0.265625,0.203125 C 0.421875,0 0.515625,0 0.6875,0 H 4.25 C 5.828125,0 7,-1.171875 7,-2.15625 7,-2.875 6.421875,-3.453125 5.453125,-3.5625 6.484375,-3.75 7.53125,-4.484375 7.53125,-5.4375 c 0,-0.734375 -0.65625,-1.375 -1.84375,-1.375 H 2.328125 c -0.1875,0 -0.28125,0 -0.28125,0.203125 0,0.109375 0.09375,0.109375 0.28125,0.109375 0.015625,0 0.203125,0 0.375,0.015625 0.171875,0.03125 0.265625,0.03125 0.265625,0.171875 0,0.03125 -0.015625,0.0625 -0.03125,0.1875 z m 1.5,-2.875 0.625,-2.46875 C 3.8125,-6.46875 3.828125,-6.5 4.25,-6.5 h 1.296875 c 0.875,0 1.078125,0.59375 1.078125,1.03125 0,0.875 -0.859375,1.8125 -2.0625,1.8125 z m -0.4375,3.34375 c -0.140625,0 -0.15625,0 -0.21875,0 -0.109375,-0.015625 -0.140625,-0.03125 -0.140625,-0.109375 0,-0.03125 0,-0.046875 0.0625,-0.21875 l 0.6875,-2.78125 h 1.875 c 0.953125,0 1.15625,0.734375 1.15625,1.15625 C 6.078125,-1.28125 5.1875,-0.3125 4,-0.3125 Z m 0,0"
   id="id-c05b5202-e5a2-4594-96fb-a1bdc97042de-2" />
      </g>
      <g
   id="id-07cd88ef-e843-40ca-8f69-2a0a4ce2224f-4" />
      <g
   id="id-1f8ef5c7-f6c9-4ed6-9490-52f86a4bc347-9">
        <path
   d="m 3.59375,-2.109375 c 0,-0.609375 -0.296875,-0.96875 -1.046875,-0.96875 -0.578125,0 -0.9375,0.3125 -1.140625,0.6875 v -0.6875 L 0.375,-3 v 0.25 c 0.46875,0 0.53125,0.046875 0.53125,0.390625 v 1.8125 C 0.90625,-0.25 0.828125,-0.25 0.375,-0.25 V 0 C 0.390625,0 0.875,-0.03125 1.171875,-0.03125 1.421875,-0.03125 1.90625,0 1.96875,0 v -0.25 c -0.453125,0 -0.515625,0 -0.515625,-0.296875 V -1.8125 c 0,-0.71875 0.578125,-1.0625 1.03125,-1.0625 0.484375,0 0.546875,0.375 0.546875,0.734375 v 1.59375 C 3.03125,-0.25 2.96875,-0.25 2.515625,-0.25 V 0 C 2.53125,0 3.015625,-0.03125 3.3125,-0.03125 3.5625,-0.03125 4.046875,0 4.109375,0 v -0.25 c -0.453125,0 -0.515625,0 -0.515625,-0.296875 z m 0,0"
   id="id-909d91d8-2596-4a62-b16b-0d85bf3217be-7" />
      </g>
      <g
   id="id-bac13a04-eede-407e-bd73-2c61d88bc4aa-7">
        <path
   d="m 3.0625,-1.59375 c 0.15625,0 0.203125,0 0.203125,-0.140625 0,-0.625 -0.34375,-1.375 -1.390625,-1.375 -0.90625,0 -1.609375,0.71875 -1.609375,1.578125 0,0.890625 0.78125,1.59375 1.703125,1.59375 0.9375,0 1.296875,-0.75 1.296875,-0.90625 0,-0.015625 -0.015625,-0.09375 -0.125,-0.09375 -0.09375,0 -0.109375,0.046875 -0.125,0.109375 -0.21875,0.5625 -0.75,0.671875 -1,0.671875 C 1.6875,-0.15625 1.375,-0.296875 1.171875,-0.5625 0.90625,-0.890625 0.90625,-1.3125 0.90625,-1.59375 Z M 0.90625,-1.765625 C 0.984375,-2.75 1.609375,-2.90625 1.875,-2.90625 c 0.859375,0 0.890625,0.96875 0.90625,1.140625 z m 0,0"
   id="id-13f8bbbf-4194-464a-996d-7e0a9b9a0bd9-2" />
      </g>
      <g
   id="id-ad9e2c0e-a06a-46b8-90c9-9dadf2b4ee69-3">
        <path
   d="M 1.40625,-2.75 H 2.484375 V -3 H 1.40625 v -1.28125 h -0.25 c 0,0.625 -0.28125,1.3125 -0.953125,1.328125 V -2.75 H 0.84375 v 1.875 c 0,0.78125 0.59375,0.9375 0.984375,0.9375 0.46875,0 0.78125,-0.390625 0.78125,-0.9375 V -1.265625 H 2.375 v 0.375 c 0,0.484375 -0.21875,0.734375 -0.5,0.734375 -0.46875,0 -0.46875,-0.578125 -0.46875,-0.703125 z m 0,0"
   id="id-57c51f7c-5017-4b62-91e2-67b0dfeb9395-2" />
      </g>
    </g></defs><sodipodi:namedview
   id="namedview7360"
   pagecolor="#ffffff"
   bordercolor="#666666"
   borderopacity="1.0"
   inkscape:showpageshadow="2"
   inkscape:pageopacity="0.0"
   inkscape:pagecheckerboard="0"
   inkscape:deskcolor="#d1d1d1"
   showgrid="false"
   inkscape:zoom="1.7368532"
   inkscape:cx="105.07509"
   inkscape:cy="238.93787"
   inkscape:window-width="1920"
   inkscape:window-height="1009"
   inkscape:window-x="1912"
   inkscape:window-y="-8"
   inkscape:window-maximized="1"
   inkscape:current-layer="Layer_1" />
<style
   type="text/css"
   id="style7243">
	.st0{fill:none;stroke:#000000;stroke-width:6.5623;stroke-miterlimit:10;}
	.st1{fill:none;stroke:#FF0000;stroke-width:8.3183;stroke-miterlimit:10;}
	.st2{fill:#FF0000;}
	.st3{fill:none;stroke:#000000;stroke-width:8.1005;stroke-linecap:square;stroke-miterlimit:10;}
	.st4{fill:none;}
	.st5{font-family:'CambriaMath';}
	.st6{font-size:60.3078px;}
	.st7{font-size:49.9099px;}
	.st8{fill:none;stroke:#666666;stroke-width:3.1194;stroke-miterlimit:10;}
	.st9{fill:none;stroke:#666666;stroke-width:3.1194;stroke-miterlimit:10;stroke-dasharray:9.0814,9.0814;}
	.st10{fill:none;stroke:#666666;stroke-width:3.1194;stroke-miterlimit:10;stroke-dasharray:9.3247,9.3247;}
	.st11{fill:none;stroke:#000000;stroke-width:1.0398;stroke-miterlimit:10;}
	.st12{font-family:'MyriadPro-Regular';}
	.st13{font-size:51.9894px;}
	.st14{fill:none;stroke:#FF0000;stroke-width:1.0398;stroke-miterlimit:10;}
</style>
<rect
   style="fill:#ffffff;fill-opacity:1;stroke-width:2;stroke-linecap:round;stroke-linejoin:bevel;paint-order:fill markers stroke;stroke:none"
   id="rect11630"
   width="370.78552"
   height="462.90613"
   x="17.848372"
   y="0.63630867" /><path
   class="st0"
   d="M118.6,356.6c-7.1-14.4-23-21-35.5-14.9"
   id="path7245" />
<g
   id="g7255">
	<g
   id="g7253">
		<line
   class="st1"
   x1="83.9"
   y1="403.8"
   x2="350.4"
   y2="42.5"
   id="line7247" />
		<g
   id="g7251">
			<path
   class="st2"
   d="M372.7,12.2c-5.2,18.2-9.2,42.5-7.8,60.5l-17.5-26.2l-30.2-9C334.8,33.6,356.9,22.5,372.7,12.2z"
   id="path7249" />
		</g>
	</g>
</g>
<g
   id="g7265">
	<g
   id="g7263">
		<line
   class="st3"
   x1="83.9"
   y1="403.8"
   x2="338.1"
   y2="403.8"
   id="line7257" />
		<g
   id="g7261">
			<path
   d="M374.8,403.8c-17.3,6.4-38.7,17.3-51.9,28.9l10.5-28.9L322.9,375C336.1,386.5,357.5,397.4,374.8,403.8z"
   id="path7259" />
		</g>
	</g>
</g>
<g
   id="g7275">
	<g
   id="g7273">
		<line
   class="st3"
   x1="83.9"
   y1="403.5"
   x2="83.9"
   y2="46.8"
   id="line7267" />
		<g
   id="g7271">
			<path
   d="M83.9,10.1c6.4,17.3,17.3,38.7,28.9,51.9L83.9,51.6L55,62C66.6,48.8,77.5,27.3,83.9,10.1z"
   id="path7269" />
		</g>
	</g>
</g>
<rect
   x="13.7"
   y="157.2"
   class="st4"
   width="62.4"
   height="114.9"
   id="rect7277" />


<text
   transform="matrix(0 -1 1 0 55.8355 184.9244)"
   class="st5 st6"
   id="text7283"> </text>
<g
   id="g7293">
	<g
   id="g7291">
		<line
   class="st8"
   x1="83.9"
   y1="12.2"
   x2="88.6"
   y2="12.2"
   id="line7285" />
		<line
   class="st9"
   x1="97.7"
   y1="12.2"
   x2="365.6"
   y2="12.2"
   id="line7287" />
		<line
   class="st8"
   x1="370.1"
   y1="12.2"
   x2="374.8"
   y2="12.2"
   id="line7289" />
	</g>
</g>
<g
   id="g7303">
	<g
   id="g7301">
		<line
   class="st8"
   x1="373.8"
   y1="12.2"
   x2="373.8"
   y2="16.8"
   id="line7295" />
		<line
   class="st10"
   x1="373.8"
   y1="26.2"
   x2="373.8"
   y2="394.5"
   id="line7297" />
		<line
   class="st8"
   x1="373.8"
   y1="399.2"
   x2="373.8"
   y2="403.8"
   id="line7299" />
	</g>
</g>


<rect
   x="91.8"
   y="285.1"
   class="st4"
   width="66.4"
   height="53.1"
   id="rect7335" />


<g
   transform="matrix(1.8639689,-2.7634475,2.7634475,1.8639689,165.16328,213.19195)"
   ns3:version="1.2.0"
   ns3:texconverter="pdflatex"
   ns3:pdfconverter="inkscape"
   ns3:text="$\vec{B}_\mathrm{net}$"
   ns3:preamble="C:\Users\jbobowsk\AppData\Roaming\inkscape\extensions\textext\default_packages.tex"
   ns3:scale="2.5"
   ns3:alignment="middle center"
   ns3:jacobian_sqrt="3.33332"
   id="g7517"
   style="fill:#ff0000;fill-opacity:1"><defs
   id="id-eff02053-19ac-4023-b2fd-ddb8cba6b0ab">
    <g
   id="id-5b466c01-6740-41d9-bdfd-709fa21c0990">
      <g
   id="id-0b32149b-ba41-40ae-97f2-468faf247150" />
      <g
   id="id-c76ff1db-2df5-46e7-a19f-4d17a5c6fb68">
        <path
   d="m 5.359375,-5.9375 c -0.140625,0.140625 -0.46875,0.421875 -0.46875,0.59375 0,0.09375 0.09375,0.203125 0.1875,0.203125 0.09375,0 0.140625,-0.078125 0.203125,-0.140625 C 5.390625,-5.421875 5.625,-5.703125 6.0625,-5.921875 6.125,-5.96875 6.234375,-6.015625 6.234375,-6.125 6.234375,-6.234375 6.15625,-6.28125 6.09375,-6.328125 5.875,-6.484375 5.765625,-6.65625 5.6875,-6.890625 5.65625,-6.984375 5.625,-7.125 5.484375,-7.125 c -0.140625,0 -0.203125,0.140625 -0.203125,0.21875 0,0.046875 0.078125,0.359375 0.234375,0.578125 H 2.15625 c -0.15625,0 -0.34375,0 -0.34375,0.203125 0,0.1875 0.1875,0.1875 0.34375,0.1875 z m 0,0"
   id="id-91cd0b22-3cc8-4087-875d-f02c7ce0af08" />
      </g>
      <g
   id="id-a98b41e6-3bc2-4482-92b4-f80a7eb041ab">
        <path
   d="M 1.59375,-0.78125 C 1.5,-0.390625 1.46875,-0.3125 0.6875,-0.3125 c -0.171875,0 -0.265625,0 -0.265625,0.203125 C 0.421875,0 0.515625,0 0.6875,0 H 4.25 C 5.828125,0 7,-1.171875 7,-2.15625 7,-2.875 6.421875,-3.453125 5.453125,-3.5625 6.484375,-3.75 7.53125,-4.484375 7.53125,-5.4375 c 0,-0.734375 -0.65625,-1.375 -1.84375,-1.375 H 2.328125 c -0.1875,0 -0.28125,0 -0.28125,0.203125 0,0.109375 0.09375,0.109375 0.28125,0.109375 0.015625,0 0.203125,0 0.375,0.015625 0.171875,0.03125 0.265625,0.03125 0.265625,0.171875 0,0.03125 -0.015625,0.0625 -0.03125,0.1875 z m 1.5,-2.875 0.625,-2.46875 C 3.8125,-6.46875 3.828125,-6.5 4.25,-6.5 h 1.296875 c 0.875,0 1.078125,0.59375 1.078125,1.03125 0,0.875 -0.859375,1.8125 -2.0625,1.8125 z m -0.4375,3.34375 c -0.140625,0 -0.15625,0 -0.21875,0 -0.109375,-0.015625 -0.140625,-0.03125 -0.140625,-0.109375 0,-0.03125 0,-0.046875 0.0625,-0.21875 l 0.6875,-2.78125 h 1.875 c 0.953125,0 1.15625,0.734375 1.15625,1.15625 C 6.078125,-1.28125 5.1875,-0.3125 4,-0.3125 Z m 0,0"
   id="id-c05b5202-e5a2-4594-96fb-a1bdc97042de" />
      </g>
      <g
   id="id-07cd88ef-e843-40ca-8f69-2a0a4ce2224f" />
      <g
   id="id-1f8ef5c7-f6c9-4ed6-9490-52f86a4bc347">
        <path
   d="m 3.59375,-2.109375 c 0,-0.609375 -0.296875,-0.96875 -1.046875,-0.96875 -0.578125,0 -0.9375,0.3125 -1.140625,0.6875 v -0.6875 L 0.375,-3 v 0.25 c 0.46875,0 0.53125,0.046875 0.53125,0.390625 v 1.8125 C 0.90625,-0.25 0.828125,-0.25 0.375,-0.25 V 0 C 0.390625,0 0.875,-0.03125 1.171875,-0.03125 1.421875,-0.03125 1.90625,0 1.96875,0 v -0.25 c -0.453125,0 -0.515625,0 -0.515625,-0.296875 V -1.8125 c 0,-0.71875 0.578125,-1.0625 1.03125,-1.0625 0.484375,0 0.546875,0.375 0.546875,0.734375 v 1.59375 C 3.03125,-0.25 2.96875,-0.25 2.515625,-0.25 V 0 C 2.53125,0 3.015625,-0.03125 3.3125,-0.03125 3.5625,-0.03125 4.046875,0 4.109375,0 v -0.25 c -0.453125,0 -0.515625,0 -0.515625,-0.296875 z m 0,0"
   id="id-909d91d8-2596-4a62-b16b-0d85bf3217be" />
      </g>
      <g
   id="id-bac13a04-eede-407e-bd73-2c61d88bc4aa">
        <path
   d="m 3.0625,-1.59375 c 0.15625,0 0.203125,0 0.203125,-0.140625 0,-0.625 -0.34375,-1.375 -1.390625,-1.375 -0.90625,0 -1.609375,0.71875 -1.609375,1.578125 0,0.890625 0.78125,1.59375 1.703125,1.59375 0.9375,0 1.296875,-0.75 1.296875,-0.90625 0,-0.015625 -0.015625,-0.09375 -0.125,-0.09375 -0.09375,0 -0.109375,0.046875 -0.125,0.109375 -0.21875,0.5625 -0.75,0.671875 -1,0.671875 C 1.6875,-0.15625 1.375,-0.296875 1.171875,-0.5625 0.90625,-0.890625 0.90625,-1.3125 0.90625,-1.59375 Z M 0.90625,-1.765625 C 0.984375,-2.75 1.609375,-2.90625 1.875,-2.90625 c 0.859375,0 0.890625,0.96875 0.90625,1.140625 z m 0,0"
   id="id-13f8bbbf-4194-464a-996d-7e0a9b9a0bd9" />
      </g>
      <g
   id="id-ad9e2c0e-a06a-46b8-90c9-9dadf2b4ee69">
        <path
   d="M 1.40625,-2.75 H 2.484375 V -3 H 1.40625 v -1.28125 h -0.25 c 0,0.625 -0.28125,1.3125 -0.953125,1.328125 V -2.75 H 0.84375 v 1.875 c 0,0.78125 0.59375,0.9375 0.984375,0.9375 0.46875,0 0.78125,-0.390625 0.78125,-0.9375 V -1.265625 H 2.375 v 0.375 c 0,0.484375 -0.21875,0.734375 -0.5,0.734375 -0.46875,0 -0.46875,-0.578125 -0.46875,-0.703125 z m 0,0"
   id="id-57c51f7c-5017-4b62-91e2-67b0dfeb9395" />
      </g>
    </g>
  </defs>
  <g
   fill="#000000"
   fill-opacity="1"
   id="id-0eef7c6c-34ff-4eff-ba88-a42d961aacc2"
   transform="translate(-149.134,-125.121)"
   style="fill:#ff0000;fill-opacity:1">
    <g
   transform="translate(150.314,132.246)"
   id="g7712"
   style="fill:#ff0000;fill-opacity:1"><path
   d="m 5.359375,-5.9375 c -0.140625,0.140625 -0.46875,0.421875 -0.46875,0.59375 0,0.09375 0.09375,0.203125 0.1875,0.203125 0.09375,0 0.140625,-0.078125 0.203125,-0.140625 C 5.390625,-5.421875 5.625,-5.703125 6.0625,-5.921875 6.125,-5.96875 6.234375,-6.015625 6.234375,-6.125 6.234375,-6.234375 6.15625,-6.28125 6.09375,-6.328125 5.875,-6.484375 5.765625,-6.65625 5.6875,-6.890625 5.65625,-6.984375 5.625,-7.125 5.484375,-7.125 c -0.140625,0 -0.203125,0.140625 -0.203125,0.21875 0,0.046875 0.078125,0.359375 0.234375,0.578125 H 2.15625 c -0.15625,0 -0.34375,0 -0.34375,0.203125 0,0.1875 0.1875,0.1875 0.34375,0.1875 z m 0,0"
   id="id-752d6079-bad9-4b04-aab8-289660c0bfce"
   style="fill:#ff0000;fill-opacity:1" />
      </g></g>
  <g
   fill="#000000"
   fill-opacity="1"
   id="id-30111ab7-fa1f-4b6d-bb86-52ed460661d3"
   transform="translate(-149.134,-125.121)"
   style="fill:#ff0000;fill-opacity:1">
    <g
   transform="translate(148.712,134.765)"
   id="g7716"
   style="fill:#ff0000;fill-opacity:1"><path
   d="M 1.59375,-0.78125 C 1.5,-0.390625 1.46875,-0.3125 0.6875,-0.3125 c -0.171875,0 -0.265625,0 -0.265625,0.203125 C 0.421875,0 0.515625,0 0.6875,0 H 4.25 C 5.828125,0 7,-1.171875 7,-2.15625 7,-2.875 6.421875,-3.453125 5.453125,-3.5625 6.484375,-3.75 7.53125,-4.484375 7.53125,-5.4375 c 0,-0.734375 -0.65625,-1.375 -1.84375,-1.375 H 2.328125 c -0.1875,0 -0.28125,0 -0.28125,0.203125 0,0.109375 0.09375,0.109375 0.28125,0.109375 0.015625,0 0.203125,0 0.375,0.015625 0.171875,0.03125 0.265625,0.03125 0.265625,0.171875 0,0.03125 -0.015625,0.0625 -0.03125,0.1875 z m 1.5,-2.875 0.625,-2.46875 C 3.8125,-6.46875 3.828125,-6.5 4.25,-6.5 h 1.296875 c 0.875,0 1.078125,0.59375 1.078125,1.03125 0,0.875 -0.859375,1.8125 -2.0625,1.8125 z m -0.4375,3.34375 c -0.140625,0 -0.15625,0 -0.21875,0 -0.109375,-0.015625 -0.140625,-0.03125 -0.140625,-0.109375 0,-0.03125 0,-0.046875 0.0625,-0.21875 l 0.6875,-2.78125 h 1.875 c 0.953125,0 1.15625,0.734375 1.15625,1.15625 C 6.078125,-1.28125 5.1875,-0.3125 4,-0.3125 Z m 0,0"
   id="id-e8daad90-d107-40f1-bf1f-223ac04bed58"
   style="fill:#ff0000;fill-opacity:1" />
      </g></g>
  <g
   fill="#000000"
   fill-opacity="1"
   id="id-f1c77fd3-d667-4978-aa4d-5e58c4572b4c"
   transform="translate(-149.134,-125.121)"
   style="fill:#ff0000;fill-opacity:1">
    <g
   transform="translate(156.269,136.259)"
   id="g7720"
   style="fill:#ff0000;fill-opacity:1"><path
   d="m 3.59375,-2.109375 c 0,-0.609375 -0.296875,-0.96875 -1.046875,-0.96875 -0.578125,0 -0.9375,0.3125 -1.140625,0.6875 v -0.6875 L 0.375,-3 v 0.25 c 0.46875,0 0.53125,0.046875 0.53125,0.390625 v 1.8125 C 0.90625,-0.25 0.828125,-0.25 0.375,-0.25 V 0 C 0.390625,0 0.875,-0.03125 1.171875,-0.03125 1.421875,-0.03125 1.90625,0 1.96875,0 v -0.25 c -0.453125,0 -0.515625,0 -0.515625,-0.296875 V -1.8125 c 0,-0.71875 0.578125,-1.0625 1.03125,-1.0625 0.484375,0 0.546875,0.375 0.546875,0.734375 v 1.59375 C 3.03125,-0.25 2.96875,-0.25 2.515625,-0.25 V 0 C 2.53125,0 3.015625,-0.03125 3.3125,-0.03125 3.5625,-0.03125 4.046875,0 4.109375,0 v -0.25 c -0.453125,0 -0.515625,0 -0.515625,-0.296875 z m 0,0"
   id="id-d9edb24a-af46-409a-93d4-b4fdca1fb3b7"
   style="fill:#ff0000;fill-opacity:1" />
      </g><g
   transform="translate(160.669,136.259)"
   id="g7723"
   style="fill:#ff0000;fill-opacity:1"><path
   d="m 3.0625,-1.59375 c 0.15625,0 0.203125,0 0.203125,-0.140625 0,-0.625 -0.34375,-1.375 -1.390625,-1.375 -0.90625,0 -1.609375,0.71875 -1.609375,1.578125 0,0.890625 0.78125,1.59375 1.703125,1.59375 0.9375,0 1.296875,-0.75 1.296875,-0.90625 0,-0.015625 -0.015625,-0.09375 -0.125,-0.09375 -0.09375,0 -0.109375,0.046875 -0.125,0.109375 -0.21875,0.5625 -0.75,0.671875 -1,0.671875 C 1.6875,-0.15625 1.375,-0.296875 1.171875,-0.5625 0.90625,-0.890625 0.90625,-1.3125 0.90625,-1.59375 Z M 0.90625,-1.765625 C 0.984375,-2.75 1.609375,-2.90625 1.875,-2.90625 c 0.859375,0 0.890625,0.96875 0.90625,1.140625 z m 0,0"
   id="id-f70f20ea-7904-4280-a483-4fbfd7198ac6"
   style="fill:#ff0000;fill-opacity:1" />
      </g><g
   transform="translate(164.211,136.259)"
   id="g7726"
   style="fill:#ff0000;fill-opacity:1"><path
   d="M 1.40625,-2.75 H 2.484375 V -3 H 1.40625 v -1.28125 h -0.25 c 0,0.625 -0.28125,1.3125 -0.953125,1.328125 V -2.75 H 0.84375 v 1.875 c 0,0.78125 0.59375,0.9375 0.984375,0.9375 0.46875,0 0.78125,-0.390625 0.78125,-0.9375 V -1.265625 H 2.375 v 0.375 c 0,0.484375 -0.21875,0.734375 -0.5,0.734375 -0.46875,0 -0.46875,-0.578125 -0.46875,-0.703125 z m 0,0"
   id="id-95bc4436-247a-4531-8d11-2949ee360db3"
   style="fill:#ff0000;fill-opacity:1" />
      </g></g>
</g><g
   transform="matrix(0,-3.33332,3.33332,0,35.269263,246.05084)"
   ns3:version="1.2.0"
   ns3:texconverter="pdflatex"
   ns3:pdfconverter="inkscape"
   ns3:text="$\vec{B}_\mathrm{E}$"
   ns3:preamble="C:\Users\jbobowsk\AppData\Roaming\inkscape\extensions\textext\default_packages.tex"
   ns3:scale="2.5"
   ns3:alignment="middle center"
   ns3:jacobian_sqrt="3.33332"
   id="g9353"><defs
   id="id-527b3e50-0760-477d-a43e-22e3a76bf1b7">
    <g
   id="id-5c984d68-94f0-42f4-861d-e0a861a293d8">
      <g
   id="id-d4548873-b777-463c-9298-31949963e47b" />
      <g
   id="id-187984b6-0921-4e9d-b40f-2a17c86b8264">
        <path
   d="m 5.359375,-5.9375 c -0.140625,0.140625 -0.46875,0.421875 -0.46875,0.59375 0,0.09375 0.09375,0.203125 0.1875,0.203125 0.09375,0 0.140625,-0.078125 0.203125,-0.140625 C 5.390625,-5.421875 5.625,-5.703125 6.0625,-5.921875 6.125,-5.96875 6.234375,-6.015625 6.234375,-6.125 6.234375,-6.234375 6.15625,-6.28125 6.09375,-6.328125 5.875,-6.484375 5.765625,-6.65625 5.6875,-6.890625 5.65625,-6.984375 5.625,-7.125 5.484375,-7.125 c -0.140625,0 -0.203125,0.140625 -0.203125,0.21875 0,0.046875 0.078125,0.359375 0.234375,0.578125 H 2.15625 c -0.15625,0 -0.34375,0 -0.34375,0.203125 0,0.1875 0.1875,0.1875 0.34375,0.1875 z m 0,0"
   id="id-504a5af9-e7c3-4f06-9494-9bc58fe42e81" />
      </g>
      <g
   id="id-ab81cf38-0d92-480e-a6ab-10dc7cf7a65b">
        <path
   d="M 1.59375,-0.78125 C 1.5,-0.390625 1.46875,-0.3125 0.6875,-0.3125 c -0.171875,0 -0.265625,0 -0.265625,0.203125 C 0.421875,0 0.515625,0 0.6875,0 H 4.25 C 5.828125,0 7,-1.171875 7,-2.15625 7,-2.875 6.421875,-3.453125 5.453125,-3.5625 6.484375,-3.75 7.53125,-4.484375 7.53125,-5.4375 c 0,-0.734375 -0.65625,-1.375 -1.84375,-1.375 H 2.328125 c -0.1875,0 -0.28125,0 -0.28125,0.203125 0,0.109375 0.09375,0.109375 0.28125,0.109375 0.015625,0 0.203125,0 0.375,0.015625 0.171875,0.03125 0.265625,0.03125 0.265625,0.171875 0,0.03125 -0.015625,0.0625 -0.03125,0.1875 z m 1.5,-2.875 0.625,-2.46875 C 3.8125,-6.46875 3.828125,-6.5 4.25,-6.5 h 1.296875 c 0.875,0 1.078125,0.59375 1.078125,1.03125 0,0.875 -0.859375,1.8125 -2.0625,1.8125 z m -0.4375,3.34375 c -0.140625,0 -0.15625,0 -0.21875,0 -0.109375,-0.015625 -0.140625,-0.03125 -0.140625,-0.109375 0,-0.03125 0,-0.046875 0.0625,-0.21875 l 0.6875,-2.78125 h 1.875 c 0.953125,0 1.15625,0.734375 1.15625,1.15625 C 6.078125,-1.28125 5.1875,-0.3125 4,-0.3125 Z m 0,0"
   id="id-95d7aa47-7e0a-4642-92ab-354a339f466a" />
      </g>
      <g
   id="id-f0fb26bd-93ae-4cc9-8719-3f7d5cd47a06" />
      <g
   id="id-53745fbd-c5bf-4cc6-ac60-3a6edcd1d480">
        <path
   d="M 5.078125,-1.828125 H 4.84375 C 4.65625,-0.78125 4.5,-0.25 3.203125,-0.25 h -1.09375 c -0.328125,0 -0.34375,-0.0625 -0.34375,-0.265625 v -1.8125 H 2.46875 c 0.703125,0 0.8125,0.203125 0.8125,0.8125 H 3.515625 V -3.40625 H 3.28125 c 0,0.609375 -0.109375,0.828125 -0.8125,0.828125 H 1.765625 v -1.625 c 0,-0.21875 0.015625,-0.28125 0.34375,-0.28125 H 3.15625 c 1.140625,0 1.34375,0.375 1.46875,1.359375 h 0.234375 l -0.21875,-1.609375 h -4.25 v 0.25 H 0.5625 c 0.53125,0 0.546875,0.078125 0.546875,0.3125 V -0.5625 c 0,0.234375 -0.015625,0.3125 -0.546875,0.3125 H 0.390625 V 0 h 4.375 z m 0,0"
   id="id-49ffd6b9-2e74-41d7-8996-02bfb2bb8c2b" />
      </g>
    </g>
  </defs>
  <g
   fill="#000000"
   fill-opacity="1"
   id="id-51a3be7f-ca24-49d9-83c5-5d155a1766be"
   transform="translate(-149.134,-125.121)">
    <g
   transform="translate(150.314,132.246)"
   id="g9342"><path
   d="m 5.359375,-5.9375 c -0.140625,0.140625 -0.46875,0.421875 -0.46875,0.59375 0,0.09375 0.09375,0.203125 0.1875,0.203125 0.09375,0 0.140625,-0.078125 0.203125,-0.140625 C 5.390625,-5.421875 5.625,-5.703125 6.0625,-5.921875 6.125,-5.96875 6.234375,-6.015625 6.234375,-6.125 6.234375,-6.234375 6.15625,-6.28125 6.09375,-6.328125 5.875,-6.484375 5.765625,-6.65625 5.6875,-6.890625 5.65625,-6.984375 5.625,-7.125 5.484375,-7.125 c -0.140625,0 -0.203125,0.140625 -0.203125,0.21875 0,0.046875 0.078125,0.359375 0.234375,0.578125 H 2.15625 c -0.15625,0 -0.34375,0 -0.34375,0.203125 0,0.1875 0.1875,0.1875 0.34375,0.1875 z m 0,0"
   id="id-209261b2-0c9a-4597-b4da-138d86fbf42f" />
      </g></g>
  <g
   fill="#000000"
   fill-opacity="1"
   id="id-98668af1-d45f-4227-9ae4-2c79439a7853"
   transform="translate(-149.134,-125.121)">
    <g
   transform="translate(148.712,134.765)"
   id="g9346"><path
   d="M 1.59375,-0.78125 C 1.5,-0.390625 1.46875,-0.3125 0.6875,-0.3125 c -0.171875,0 -0.265625,0 -0.265625,0.203125 C 0.421875,0 0.515625,0 0.6875,0 H 4.25 C 5.828125,0 7,-1.171875 7,-2.15625 7,-2.875 6.421875,-3.453125 5.453125,-3.5625 6.484375,-3.75 7.53125,-4.484375 7.53125,-5.4375 c 0,-0.734375 -0.65625,-1.375 -1.84375,-1.375 H 2.328125 c -0.1875,0 -0.28125,0 -0.28125,0.203125 0,0.109375 0.09375,0.109375 0.28125,0.109375 0.015625,0 0.203125,0 0.375,0.015625 0.171875,0.03125 0.265625,0.03125 0.265625,0.171875 0,0.03125 -0.015625,0.0625 -0.03125,0.1875 z m 1.5,-2.875 0.625,-2.46875 C 3.8125,-6.46875 3.828125,-6.5 4.25,-6.5 h 1.296875 c 0.875,0 1.078125,0.59375 1.078125,1.03125 0,0.875 -0.859375,1.8125 -2.0625,1.8125 z m -0.4375,3.34375 c -0.140625,0 -0.15625,0 -0.21875,0 -0.109375,-0.015625 -0.140625,-0.03125 -0.140625,-0.109375 0,-0.03125 0,-0.046875 0.0625,-0.21875 l 0.6875,-2.78125 h 1.875 c 0.953125,0 1.15625,0.734375 1.15625,1.15625 C 6.078125,-1.28125 5.1875,-0.3125 4,-0.3125 Z m 0,0"
   id="id-bede238f-01cc-43d9-b98b-d5ba075780b9" />
      </g></g>
  <g
   fill="#000000"
   fill-opacity="1"
   id="id-fca6a814-99c0-4f1a-b549-34df5f7ea102"
   transform="translate(-149.134,-125.121)">
    <g
   transform="translate(156.269,136.259)"
   id="g9350"><path
   d="M 5.078125,-1.828125 H 4.84375 C 4.65625,-0.78125 4.5,-0.25 3.203125,-0.25 h -1.09375 c -0.328125,0 -0.34375,-0.0625 -0.34375,-0.265625 v -1.8125 H 2.46875 c 0.703125,0 0.8125,0.203125 0.8125,0.8125 H 3.515625 V -3.40625 H 3.28125 c 0,0.609375 -0.109375,0.828125 -0.8125,0.828125 H 1.765625 v -1.625 c 0,-0.21875 0.015625,-0.28125 0.34375,-0.28125 H 3.15625 c 1.140625,0 1.34375,0.375 1.46875,1.359375 h 0.234375 l -0.21875,-1.609375 h -4.25 v 0.25 H 0.5625 c 0.53125,0 0.546875,0.078125 0.546875,0.3125 V -0.5625 c 0,0.234375 -0.015625,0.3125 -0.546875,0.3125 H 0.390625 V 0 h 4.375 z m 0,0"
   id="id-c273fe16-c15e-4e2a-9907-49aba9f41b09" />
      </g></g>
</g><g
   transform="matrix(3.33332,0,0,3.33332,202.39944,414.16907)"
   ns3:version="1.2.0"
   ns3:texconverter="pdflatex"
   ns3:pdfconverter="inkscape"
   ns3:text="$\vec{B}_\mathrm{S}$"
   ns3:preamble="C:\Users\jbobowsk\AppData\Roaming\inkscape\extensions\textext\default_packages.tex"
   ns3:scale="2.5"
   ns3:alignment="middle center"
   ns3:jacobian_sqrt="3.33332"
   id="g10333"><defs
   id="id-2146d2d8-e7ab-4217-8657-b4e64e812126">
    <g
   id="id-ff49fc7d-6dbc-4796-a625-2258fcd7ac99">
      <g
   id="id-e0c9a8b6-4c47-49d9-a87b-21f7037259ef" />
      <g
   id="id-ccdee6d0-9e48-4593-90e7-241e91e77169">
        <path
   d="m 5.359375,-5.9375 c -0.140625,0.140625 -0.46875,0.421875 -0.46875,0.59375 0,0.09375 0.09375,0.203125 0.1875,0.203125 0.09375,0 0.140625,-0.078125 0.203125,-0.140625 C 5.390625,-5.421875 5.625,-5.703125 6.0625,-5.921875 6.125,-5.96875 6.234375,-6.015625 6.234375,-6.125 6.234375,-6.234375 6.15625,-6.28125 6.09375,-6.328125 5.875,-6.484375 5.765625,-6.65625 5.6875,-6.890625 5.65625,-6.984375 5.625,-7.125 5.484375,-7.125 c -0.140625,0 -0.203125,0.140625 -0.203125,0.21875 0,0.046875 0.078125,0.359375 0.234375,0.578125 H 2.15625 c -0.15625,0 -0.34375,0 -0.34375,0.203125 0,0.1875 0.1875,0.1875 0.34375,0.1875 z m 0,0"
   id="id-d3a83b14-4ee2-444a-b745-9889477c524c" />
      </g>
      <g
   id="id-0a3bee5f-e68c-4def-8b48-f690af1bc86b">
        <path
   d="M 1.59375,-0.78125 C 1.5,-0.390625 1.46875,-0.3125 0.6875,-0.3125 c -0.171875,0 -0.265625,0 -0.265625,0.203125 C 0.421875,0 0.515625,0 0.6875,0 H 4.25 C 5.828125,0 7,-1.171875 7,-2.15625 7,-2.875 6.421875,-3.453125 5.453125,-3.5625 6.484375,-3.75 7.53125,-4.484375 7.53125,-5.4375 c 0,-0.734375 -0.65625,-1.375 -1.84375,-1.375 H 2.328125 c -0.1875,0 -0.28125,0 -0.28125,0.203125 0,0.109375 0.09375,0.109375 0.28125,0.109375 0.015625,0 0.203125,0 0.375,0.015625 0.171875,0.03125 0.265625,0.03125 0.265625,0.171875 0,0.03125 -0.015625,0.0625 -0.03125,0.1875 z m 1.5,-2.875 0.625,-2.46875 C 3.8125,-6.46875 3.828125,-6.5 4.25,-6.5 h 1.296875 c 0.875,0 1.078125,0.59375 1.078125,1.03125 0,0.875 -0.859375,1.8125 -2.0625,1.8125 z m -0.4375,3.34375 c -0.140625,0 -0.15625,0 -0.21875,0 -0.109375,-0.015625 -0.140625,-0.03125 -0.140625,-0.109375 0,-0.03125 0,-0.046875 0.0625,-0.21875 l 0.6875,-2.78125 h 1.875 c 0.953125,0 1.15625,0.734375 1.15625,1.15625 C 6.078125,-1.28125 5.1875,-0.3125 4,-0.3125 Z m 0,0"
   id="id-a5724b12-2fb8-4a30-8998-6ed92372561d" />
      </g>
      <g
   id="id-8c638bbc-c6fd-43b2-9799-0bbd91ed74c4" />
      <g
   id="id-33f28656-13fc-4d00-9841-2bcbc6f005fc">
        <path
   d="M 1.734375,-2.90625 C 1.125,-3.046875 0.9375,-3.484375 0.9375,-3.78125 c 0,-0.453125 0.421875,-0.890625 1.0625,-0.890625 0.9375,0 1.34375,0.625 1.453125,1.359375 0.015625,0.09375 0.015625,0.140625 0.125,0.140625 0.109375,0 0.109375,-0.046875 0.109375,-0.1875 V -4.71875 c 0,-0.125 0,-0.1875 -0.09375,-0.1875 -0.046875,0 -0.0625,0.03125 -0.109375,0.109375 L 3.21875,-4.40625 C 2.765625,-4.875 2.1875,-4.90625 2,-4.90625 c -0.890625,0 -1.515625,0.640625 -1.515625,1.34375 0,0.390625 0.171875,0.6875 0.421875,0.921875 0.28125,0.265625 0.515625,0.3125 1.265625,0.484375 0.640625,0.140625 0.78125,0.171875 0.984375,0.359375 0.15625,0.171875 0.296875,0.390625 0.296875,0.703125 0,0.484375 -0.40625,0.984375 -1.0625,0.984375 -0.6875,0 -1.609375,-0.265625 -1.671875,-1.3125 0,-0.125 0,-0.15625 -0.109375,-0.15625 -0.125,0 -0.125,0.046875 -0.125,0.1875 v 1.34375 c 0,0.125 0,0.1875 0.09375,0.1875 0.0625,0 0.078125,-0.015625 0.125,-0.078125 0.0625,-0.09375 0.203125,-0.3125 0.25,-0.40625 0.4375,0.390625 0.984375,0.484375 1.4375,0.484375 0.90625,0 1.515625,-0.6875 1.515625,-1.4375 0,-0.625 -0.4375,-1.21875 -1.140625,-1.375 z m 0,0"
   id="id-615b4920-c78a-474d-8ef8-4e89a41fff73" />
      </g>
    </g>
  </defs>
  <g
   fill="#000000"
   fill-opacity="1"
   id="id-dd1789db-a774-419a-a395-39e1b3353bde"
   transform="translate(-149.134,-125.121)">
    <g
   transform="translate(150.314,132.246)"
   id="g10322"><path
   d="m 5.359375,-5.9375 c -0.140625,0.140625 -0.46875,0.421875 -0.46875,0.59375 0,0.09375 0.09375,0.203125 0.1875,0.203125 0.09375,0 0.140625,-0.078125 0.203125,-0.140625 C 5.390625,-5.421875 5.625,-5.703125 6.0625,-5.921875 6.125,-5.96875 6.234375,-6.015625 6.234375,-6.125 6.234375,-6.234375 6.15625,-6.28125 6.09375,-6.328125 5.875,-6.484375 5.765625,-6.65625 5.6875,-6.890625 5.65625,-6.984375 5.625,-7.125 5.484375,-7.125 c -0.140625,0 -0.203125,0.140625 -0.203125,0.21875 0,0.046875 0.078125,0.359375 0.234375,0.578125 H 2.15625 c -0.15625,0 -0.34375,0 -0.34375,0.203125 0,0.1875 0.1875,0.1875 0.34375,0.1875 z m 0,0"
   id="id-ddfeddab-b1d3-4fd1-9f1b-741d985370af" />
      </g></g>
  <g
   fill="#000000"
   fill-opacity="1"
   id="id-2db31f5c-ed99-45c2-8db7-3b0c8fcefa84"
   transform="translate(-149.134,-125.121)">
    <g
   transform="translate(148.712,134.765)"
   id="g10326"><path
   d="M 1.59375,-0.78125 C 1.5,-0.390625 1.46875,-0.3125 0.6875,-0.3125 c -0.171875,0 -0.265625,0 -0.265625,0.203125 C 0.421875,0 0.515625,0 0.6875,0 H 4.25 C 5.828125,0 7,-1.171875 7,-2.15625 7,-2.875 6.421875,-3.453125 5.453125,-3.5625 6.484375,-3.75 7.53125,-4.484375 7.53125,-5.4375 c 0,-0.734375 -0.65625,-1.375 -1.84375,-1.375 H 2.328125 c -0.1875,0 -0.28125,0 -0.28125,0.203125 0,0.109375 0.09375,0.109375 0.28125,0.109375 0.015625,0 0.203125,0 0.375,0.015625 0.171875,0.03125 0.265625,0.03125 0.265625,0.171875 0,0.03125 -0.015625,0.0625 -0.03125,0.1875 z m 1.5,-2.875 0.625,-2.46875 C 3.8125,-6.46875 3.828125,-6.5 4.25,-6.5 h 1.296875 c 0.875,0 1.078125,0.59375 1.078125,1.03125 0,0.875 -0.859375,1.8125 -2.0625,1.8125 z m -0.4375,3.34375 c -0.140625,0 -0.15625,0 -0.21875,0 -0.109375,-0.015625 -0.140625,-0.03125 -0.140625,-0.109375 0,-0.03125 0,-0.046875 0.0625,-0.21875 l 0.6875,-2.78125 h 1.875 c 0.953125,0 1.15625,0.734375 1.15625,1.15625 C 6.078125,-1.28125 5.1875,-0.3125 4,-0.3125 Z m 0,0"
   id="id-392340ca-cd74-4ec5-9c46-d4f20ace0332" />
      </g></g>
  <g
   fill="#000000"
   fill-opacity="1"
   id="id-6cfc2807-90c5-403a-8aae-fd4af4b81c06"
   transform="translate(-149.134,-125.121)">
    <g
   transform="translate(156.269,136.259)"
   id="g10330"><path
   d="M 1.734375,-2.90625 C 1.125,-3.046875 0.9375,-3.484375 0.9375,-3.78125 c 0,-0.453125 0.421875,-0.890625 1.0625,-0.890625 0.9375,0 1.34375,0.625 1.453125,1.359375 0.015625,0.09375 0.015625,0.140625 0.125,0.140625 0.109375,0 0.109375,-0.046875 0.109375,-0.1875 V -4.71875 c 0,-0.125 0,-0.1875 -0.09375,-0.1875 -0.046875,0 -0.0625,0.03125 -0.109375,0.109375 L 3.21875,-4.40625 C 2.765625,-4.875 2.1875,-4.90625 2,-4.90625 c -0.890625,0 -1.515625,0.640625 -1.515625,1.34375 0,0.390625 0.171875,0.6875 0.421875,0.921875 0.28125,0.265625 0.515625,0.3125 1.265625,0.484375 0.640625,0.140625 0.78125,0.171875 0.984375,0.359375 0.15625,0.171875 0.296875,0.390625 0.296875,0.703125 0,0.484375 -0.40625,0.984375 -1.0625,0.984375 -0.6875,0 -1.609375,-0.265625 -1.671875,-1.3125 0,-0.125 0,-0.15625 -0.109375,-0.15625 -0.125,0 -0.125,0.046875 -0.125,0.1875 v 1.34375 c 0,0.125 0,0.1875 0.09375,0.1875 0.0625,0 0.078125,-0.015625 0.125,-0.078125 0.0625,-0.09375 0.203125,-0.3125 0.25,-0.40625 0.4375,0.390625 0.984375,0.484375 1.4375,0.484375 0.90625,0 1.515625,-0.6875 1.515625,-1.4375 0,-0.625 -0.4375,-1.21875 -1.140625,-1.375 z m 0,0"
   id="id-0932f7ef-0659-40dc-a985-6be8f120fa70" />
      </g></g>
</g><g
   transform="matrix(3.33332,0,0,3.33332,100.80379,309.73105)"
   ns3:version="1.2.0"
   ns3:texconverter="pdflatex"
   ns3:pdfconverter="inkscape"
   ns3:text="$\varphi$"
   ns3:preamble="C:\Users\jbobowsk\AppData\Roaming\inkscape\extensions\textext\default_packages.tex"
   ns3:scale="2.5"
   ns3:alignment="middle center"
   ns3:jacobian_sqrt="3.33332"
   id="g11320"><defs
   id="id-67b983f1-048d-4ed7-9f30-429ad3c95860">
    <g
   id="id-9e497897-02ab-4640-9424-5cf9e45d35a0">
      <g
   id="id-ce65b170-8071-4382-9d9d-c7d79d739744" />
      <g
   id="id-6dd62898-7d9c-4b15-a01f-a1a7e08a11f8">
        <path
   d="M 1.6875,1.6875 C 1.65625,1.828125 1.640625,1.84375 1.640625,1.890625 c 0,0.21875 0.1875,0.28125 0.296875,0.28125 0.046875,0 0.265625,-0.03125 0.359375,-0.265625 C 2.328125,1.828125 2.375,1.5 2.65625,0.09375 c 0.078125,0 0.15625,0.015625 0.328125,0.015625 1.65625,0 3.1875,-1.5625 3.1875,-3.140625 0,-0.78125 -0.390625,-1.375 -1.140625,-1.375 -1.4375,0 -2.046875,1.9375 -2.640625,3.875 C 1.3125,-0.734375 0.75,-1.28125 0.75,-2 c 0,-0.28125 0.234375,-1.375 0.828125,-2.0625 0.09375,-0.09375 0.09375,-0.109375 0.09375,-0.140625 0,-0.03125 -0.03125,-0.09375 -0.125,-0.09375 -0.28125,0 -1.046875,1.453125 -1.046875,2.40625 0,0.9375 0.65625,1.65625 1.71875,1.90625 z m 1.390625,-2.15625 c -0.09375,0 -0.109375,0 -0.1875,-0.015625 -0.125,0 -0.125,0 -0.125,-0.03125 0,-0.015625 0.171875,-0.9375 0.1875,-1.078125 0.3125,-1.28125 1.09375,-2.234375 1.984375,-2.234375 0.6875,0 0.953125,0.53125 0.953125,1.015625 0,1.125 -1.28125,2.34375 -2.8125,2.34375 z m 0,0"
   id="id-049ea488-167c-4fb7-a692-9891f5deede2" />
      </g>
    </g>
  </defs>
  <g
   fill="#000000"
   fill-opacity="1"
   id="id-f06dc567-6799-4da8-9d91-958f5b36df4d"
   transform="translate(-149.212,-130.359)">
    <g
   transform="translate(148.712,134.765)"
   id="g11317"><path
   d="M 1.6875,1.6875 C 1.65625,1.828125 1.640625,1.84375 1.640625,1.890625 c 0,0.21875 0.1875,0.28125 0.296875,0.28125 0.046875,0 0.265625,-0.03125 0.359375,-0.265625 C 2.328125,1.828125 2.375,1.5 2.65625,0.09375 c 0.078125,0 0.15625,0.015625 0.328125,0.015625 1.65625,0 3.1875,-1.5625 3.1875,-3.140625 0,-0.78125 -0.390625,-1.375 -1.140625,-1.375 -1.4375,0 -2.046875,1.9375 -2.640625,3.875 C 1.3125,-0.734375 0.75,-1.28125 0.75,-2 c 0,-0.28125 0.234375,-1.375 0.828125,-2.0625 0.09375,-0.09375 0.09375,-0.109375 0.09375,-0.140625 0,-0.03125 -0.03125,-0.09375 -0.125,-0.09375 -0.28125,0 -1.046875,1.453125 -1.046875,2.40625 0,0.9375 0.65625,1.65625 1.71875,1.90625 z m 1.390625,-2.15625 c -0.09375,0 -0.109375,0 -0.1875,-0.015625 -0.125,0 -0.125,0 -0.125,-0.03125 0,-0.015625 0.171875,-0.9375 0.1875,-1.078125 0.3125,-1.28125 1.09375,-2.234375 1.984375,-2.234375 0.6875,0 0.953125,0.53125 0.953125,1.015625 0,1.125 -1.28125,2.34375 -2.8125,2.34375 z m 0,0"
   id="id-048d1bf3-7d06-411c-aa64-9e96bfd4dfd7" />
      </g></g>
</g></svg>
